<svg width="715" height="692" viewBox="0 0 715 692" fill="none" xmlns="http://www.w3.org/2000/svg">
<path d="M357.088 0L380.579 181.526L453.654 12.8835L425.819 193.83L543.059 50.5783L465.962 217.525L618.67 110.289L498.03 250.855L674.882 187.587L519.645 291.346L707.524 276.739L529.204 335.997L714.176 371.134L525.998 381.496L694.344 463.771L510.265 424.467L649.5 547.778L483.171 461.725L582.968 616.927L446.726 490.505L499.685 666.087L403.633 508.674L405.825 691.614L357.088 514.884L308.351 691.614L310.543 508.674L214.491 666.087L267.45 490.505L131.207 616.927L231.005 461.725L64.6761 547.778L203.911 424.467L19.8316 463.771L188.178 381.496L-6.10352e-05 371.134L184.971 335.997L6.65179 276.739L194.53 291.346L39.2939 187.587L216.145 250.855L95.5053 110.289L248.213 217.525L171.117 50.5783L288.356 193.83L260.522 12.8835L333.597 181.526L357.088 0Z" fill="#F7F4EC"/>
</svg>
