<svg width="442" height="64" viewBox="0 0 442 64" fill="none" xmlns="http://www.w3.org/2000/svg">
<path fill-rule="evenodd" clip-rule="evenodd" d="M318.634 13.7285C320.263 13.7285 321.748 13.9925 323.09 14.5195C324.431 15.0466 325.462 15.6934 326.181 16.46C327.427 17.8017 328.194 18.8563 328.481 19.623L329.2 14.4473H347.313V63.6123H325.821V59.0117L326.037 55.9209C324.935 57.0709 322.707 57.6465 319.353 57.6465C313.986 57.6465 309.841 55.7532 306.918 51.9678C303.995 48.1343 302.533 42.7674 302.533 35.8672C302.533 28.9671 303.971 23.5523 306.846 19.623C309.721 15.6937 313.65 13.7285 318.634 13.7285ZM324.888 33.0635C324.313 33.0635 323.833 33.2797 323.449 33.7109C323.066 34.0942 322.875 34.5736 322.875 35.1484V41.1865C322.875 41.8092 323.043 42.3121 323.378 42.6953C323.761 43.0787 324.24 43.2705 324.815 43.2705C325.438 43.2705 325.942 43.0787 326.325 42.6953C326.756 42.3121 326.972 41.8091 326.972 41.1865V35.1484C326.972 34.5736 326.756 34.0942 326.325 33.7109C325.942 33.2798 325.463 33.0636 324.888 33.0635Z" fill="#F7F4EC"/>
<path fill-rule="evenodd" clip-rule="evenodd" d="M56.2754 13.7285C63.9424 13.7285 69.5254 15.0227 73.0234 17.6104C76.5692 20.198 78.3418 24.2474 78.3418 29.7578L77.9824 38.5986L79.7793 38.5264V54.8428C78.9168 55.5615 77.4315 56.2082 75.3232 56.7832C73.2149 57.3582 71.2262 57.6465 69.3574 57.6465C67.4886 57.6465 66.0025 57.478 64.9004 57.1426C63.7985 56.8072 62.9841 56.4477 62.457 56.0645C61.93 55.6332 61.5228 55.154 61.2354 54.627C60.8041 53.8603 60.5879 53.2136 60.5879 52.6865C57.9524 55.9928 53.7598 57.6464 48.0098 57.6465C40.1032 57.6465 36.1494 54.2916 36.1494 47.583C36.1495 43.5579 37.6832 40.7064 40.75 39.0293C43.8168 37.3043 49.1838 36.2739 56.8506 35.9385C56.8503 34.2616 55.0048 33.4229 51.3154 33.4229C48.8238 33.4229 46.4279 33.7345 44.1279 34.3574C41.8758 34.9804 40.2465 35.6036 39.2402 36.2266L37.6592 37.1611V18.2568C38.0904 17.9214 38.7372 17.5143 39.5996 17.0352C40.4621 16.5081 42.4987 15.837 45.709 15.0225C48.9195 14.1599 52.4419 13.7285 56.2754 13.7285ZM53.9033 39.4609V41.1855C53.9033 41.8084 54.0952 42.312 54.4785 42.6953C54.9098 43.0787 55.4133 43.2705 55.9883 43.2705C56.6111 43.2704 57.0904 43.0786 57.4258 42.6953C57.809 42.312 58.001 41.8084 58.001 41.1855V38.3105L53.9033 39.4609Z" fill="#F7F4EC"/>
<path fill-rule="evenodd" clip-rule="evenodd" d="M166.479 13.7285C174.145 13.7285 179.729 15.0227 183.227 17.6104C186.772 20.198 188.545 24.2473 188.545 29.7578L188.186 38.5986L189.983 38.5264V54.8428C189.121 55.5616 187.635 56.2082 185.526 56.7832C183.418 57.3582 181.429 57.6465 179.561 57.6465C177.692 57.6465 176.207 57.478 175.104 57.1426C174.002 56.8071 173.187 56.4478 172.66 56.0645C172.133 55.6332 171.726 55.154 171.438 54.627C171.007 53.8603 170.792 53.2136 170.792 52.6865C168.156 55.9929 163.963 57.6465 158.213 57.6465C150.306 57.6465 146.354 54.2916 146.354 47.583C146.354 43.5579 147.886 40.7064 150.953 39.0293C154.02 37.3043 159.387 36.2739 167.054 35.9385C167.053 34.2617 165.209 33.4229 161.52 33.4229C159.028 33.4229 156.631 33.7345 154.331 34.3574C152.079 34.9803 150.45 35.6037 149.443 36.2266L147.862 37.1611V18.2568C148.294 17.9215 148.94 17.5143 149.803 17.0352C150.665 16.508 152.703 15.8371 155.913 15.0225C159.123 14.16 162.645 13.7285 166.479 13.7285ZM164.106 39.4609V41.1865C164.107 41.8091 164.299 42.3121 164.682 42.6953C165.113 43.0787 165.616 43.2705 166.191 43.2705C166.814 43.2705 167.293 43.0786 167.629 42.6953C168.012 42.3121 168.204 41.8092 168.204 41.1865V38.3105L164.106 39.4609Z" fill="#F7F4EC"/>
<path d="M371.8 38.0957C371.8 38.6704 371.991 39.1734 372.374 39.6045C372.805 39.9878 373.309 40.1797 373.884 40.1797C374.459 40.1797 374.938 39.9878 375.321 39.6045C375.705 39.1733 375.896 38.6705 375.896 38.0957V14.4473H396.238V56.9277H378.125L377.406 51.6807C377.215 52.2077 376.783 52.8545 376.112 53.6211C375.441 54.3877 374.723 55.0345 373.956 55.5615C371.848 56.9511 369.068 57.6465 365.618 57.6465C360.922 57.6465 357.376 56.3521 354.98 53.7646C352.632 51.1771 351.458 47.4394 351.458 42.5518V14.4473H371.8V38.0957Z" fill="#F7F4EC"/>
<path fill-rule="evenodd" clip-rule="evenodd" d="M421.73 13.7285C429.302 13.7285 434.573 15.2623 437.544 18.3291C440.515 21.3959 442 26.4271 442 33.4229L441.641 38.958H421.803V41.4014C423.001 41.6889 424.75 41.833 427.05 41.833C431.937 41.833 435.89 41.6178 438.909 41.1865L440.419 40.9707V54.4834C440.036 54.723 439.412 55.0346 438.55 55.418C437.735 55.7534 435.746 56.2082 432.584 56.7832C429.422 57.3582 425.9 57.6465 422.019 57.6465C414.352 57.6465 408.816 55.8254 405.414 52.1836C402.06 48.5418 400.383 43.0786 400.383 35.7949C400.383 28.4635 402.036 22.9534 405.343 19.2637C408.697 15.574 414.159 13.7285 421.73 13.7285ZM422.665 30.4766C422.09 30.4766 421.611 30.6676 421.228 31.0508C420.892 31.4341 420.725 31.9377 420.725 32.5605V35.3643H424.821V32.5605C424.821 31.9377 424.606 31.4341 424.175 31.0508C423.791 30.6675 423.288 30.4766 422.665 30.4766Z" fill="#F7F4EC"/>
<path fill-rule="evenodd" clip-rule="evenodd" d="M215.083 12.4346L214.939 15.5254C215.179 14.9505 215.97 14.5189 217.312 14.2314C218.653 13.8961 220.091 13.7285 221.624 13.7285C226.943 13.7286 231.064 15.6451 233.987 19.4785C236.958 23.264 238.443 28.6311 238.443 35.5791C238.443 42.4794 236.91 47.8228 233.843 51.6084C230.776 55.3458 226.416 57.2148 220.762 57.2148C216.928 57.2148 213.813 56.28 211.417 54.4111C210.89 53.9799 210.411 53.4529 209.979 52.8301L208.47 56.9277H193.663V3.37793H215.083V12.4346ZM216.018 33.0635C215.443 33.0635 214.963 33.2797 214.58 33.7109C214.197 34.0943 214.005 34.5734 214.005 35.1484V41.1865C214.005 41.8092 214.173 42.3121 214.508 42.6953C214.891 43.0786 215.37 43.2705 215.945 43.2705C216.568 43.2705 217.072 43.0787 217.455 42.6953C217.886 42.3121 218.101 41.8092 218.102 41.1865V35.1484C218.102 34.5735 217.886 34.0943 217.455 33.7109C217.072 33.2797 216.593 33.0635 216.018 33.0635Z" fill="#F7F4EC"/>
<path d="M24.7256 38.4551H32.0576V56.9277H0V7.25977H24.7256V38.4551Z" fill="#F7F4EC"/>
<path d="M143.271 24.4326H127.746V27.3076H143.271V37.3701H127.746V56.9277H102.948V3.51562H143.271V24.4326Z" fill="#F7F4EC"/>
<path d="M261.349 24.9355C261.444 24.7918 261.564 24.5998 261.708 24.3604C261.852 24.1207 262.259 23.7134 262.93 23.1387C263.601 22.5158 264.367 21.9645 265.229 21.4854C267.625 20.2874 270.644 19.6885 274.286 19.6885V42.5459L264.008 41.5391V56.9277H242.588V19.6885H260.63L261.349 24.9355Z" fill="#F7F4EC"/>
<path d="M298.332 56.9277H276.913V19.623H298.332V56.9277Z" fill="#F7F4EC"/>
<path d="M287.551 0C294.738 6.46623e-05 298.332 2.89917 298.332 8.69727C298.332 12.0036 297.446 14.3759 295.673 15.8135C293.9 17.251 291.192 17.9697 287.551 17.9697C283.909 17.9697 281.225 17.251 279.5 15.8135C277.775 14.3759 276.913 12.0756 276.913 8.91309C276.913 5.75046 277.775 3.47362 279.5 2.08398C281.273 0.694399 283.957 0 287.551 0Z" fill="#F7F4EC"/>
</svg>
